# xmcd
#
# Track frame offsets: 
#        150
#        13503
#        29200
#        45305
#        62952
#        72910
#        93534
#        112836
#        126522
#        140543
#
# Disc length: 2130 seconds
#
# Revision: 0
# Processed by: cddbd v1.5.2PL0 Copyright (c) Steve Scherf et al.
# Submitted via: ExactAudioCopy v1.3
#
DISCID=8f08500a
DTITLE=Keb' Mo' - Moonlight, Mistletoe and You
DYEAR=2019
DGENRE=Blues
TTITLE0=Please Come Home For Christmas
TTITLE1=Moonlight, Mistletoe and You (feat. Gerald Albright)
TTITLE2=Better Everyday
TTITLE3=Santa Claus, Santa Claus
TTITLE4=Christmas Is Annoying
TTITLE5=Merry, Merry Christmas
TTITLE6=I’ve Got My Love To Keep Me Warm (feat. Melissa Manchester)
TTITLE7=Santa Claus Blues
TTITLE8=When the Children Sing
TTITLE9=One More Year With You
EXTD=
EXTT0=
EXTT1=
EXTT2=
EXTT3=
EXTT4=
EXTT5=
EXTT6=
EXTT7=
EXTT8=
EXTT9=
PLAYORDER=
